<?xml version="1.0" encoding="UTF-8"?><svg xmlns="http://www.w3.org/2000/svg" viewBox="0 0 60 60"><path d="M29.62,44.33c-9.29,.05-18.27-3.57-25.18-10.15-.53-.49-.06-1.18,.57-.79,7.69,4.64,16.39,7.08,25.25,7.06,6.6-.03,13.13-1.45,19.21-4.16,.91-.42,1.69,.66,.77,1.37-5.58,4.34-13.65,6.66-20.62,6.66Zm22.83-9.34c-.73-.94-4.8-.45-6.63-.22-.56,.06-.65-.43-.15-.78,3.25-2.32,8.58-1.65,9.2-.88,.62,.77-.16,6.21-3.21,8.8-.47,.4-.92,.18-.71-.33,.68-1.73,2.22-5.63,1.49-6.58h0Z" fill="#fff" fill-rule="evenodd"/><path d="M39.35,28.49c.37-.26,.58-.68,.56-1.12,.01-.3-.11-.59-.33-.8-.36-.28-.77-.49-1.21-.62l-1.82-.65c-1.57-.54-2.37-1.52-2.37-2.87-.03-.85,.37-1.66,1.08-2.17,.82-.57,1.81-.86,2.82-.82,.92,0,1.84,.16,2.71,.47,.14,.04,.27,.11,.37,.21,.08,.12,.11,.26,.1,.4v.54c0,.24-.09,.37-.28,.37-.17-.01-.33-.05-.49-.1-.75-.22-1.52-.33-2.3-.33-1.37,0-2.05,.44-2.05,1.33-.02,.32,.11,.63,.34,.84,.41,.3,.86,.52,1.34,.67l1.69,.61c.68,.23,1.29,.62,1.78,1.14,.39,.47,.59,1.06,.56,1.67,.03,.9-.39,1.76-1.13,2.31-.88,.62-1.95,.92-3.03,.87-1.1,.01-2.19-.18-3.22-.58-.13-.05-.25-.12-.35-.22-.07-.12-.11-.25-.1-.39v-.57c0-.24,.08-.37,.25-.37,.18,.02,.36,.06,.54,.12,.95,.29,1.93,.43,2.92,.43,.56,.04,1.12-.1,1.6-.39h0Z" fill="#fff" fill-rule="evenodd"/><path d="M29.95,19.87c-.03-.2,.11-.39,.32-.42,.03,0,.07,0,.1,0h1.22c.2-.03,.39,.11,.42,.32h0s0,.07,0,.1v9.84c.03,.21-.11,.4-.31,.43-.04,0-.07,0-.11,0h-.9c-.11,0-.22-.02-.32-.08-.09-.08-.15-.2-.16-.32l-.14-.74c-1.12,.91-2.52,1.43-3.97,1.46-.85,.06-1.68-.25-2.28-.84-.56-.67-.84-1.52-.79-2.39v-7.36c-.03-.2,.11-.39,.32-.42,.03,0,.07,0,.1,0h1.22c.2-.03,.39,.11,.42,.31,0,.03,0,.07,0,.11v6.71c-.05,.59,.1,1.18,.43,1.68,.35,.4,.87,.6,1.39,.56,1.08-.03,2.13-.38,3.01-1.01l.02-7.93h0Z" fill="#fff" fill-rule="evenodd"/><path d="M18.77,30.17c-.2,.03-.39-.11-.42-.32h0s0-.07,0-.11v-6.83c.04-.55-.1-1.1-.4-1.57-.31-.36-.78-.55-1.26-.5-1.09,.02-2.16,.35-3.08,.95,0,.1,0,.21,0,.31v7.64c.03,.2-.11,.39-.32,.42-.04,0-.07,0-.11,0h-1.23c-.2,.03-.39-.11-.42-.32h0s0-.07,0-.11v-6.83c.04-.55-.1-1.1-.39-1.57-.32-.36-.78-.54-1.26-.5-1.09,0-2.15,.33-3.06,.93v7.97c.03,.2-.11,.39-.31,.42-.03,0-.07,0-.1,0h-1.24c-.2,.03-.39-.12-.42-.32,0-.03,0-.07,0-.1v-9.85c-.03-.2,.11-.39,.31-.42,.04,0,.07,0,.11,0h.93c.11,0,.23,.02,.32,.08,.09,.08,.15,.19,.16,.31l.12,.68c1.13-.86,2.5-1.34,3.92-1.39,1.3,0,2.18,.5,2.64,1.5,1.19-.93,2.64-1.46,4.15-1.5,.82-.05,1.62,.25,2.21,.82,.55,.65,.83,1.49,.78,2.34v7.42c.03,.2-.11,.39-.32,.42-.04,0-.07,0-.11,0h-1.21Z" fill="#fff" fill-rule="evenodd"/><path d="M50.86,22.05c-.51,.59-.77,1.53-.77,2.82v.27c0,1.26,.26,2.21,.78,2.76,.65,.64,1.55,.97,2.46,.89,.63,0,1.26-.11,1.87-.29,.1-.03,.21-.05,.31-.06,.18,0,.27,.14,.27,.41v.55c.01,.14-.02,.28-.08,.4-.09,.11-.2,.19-.33,.23-.75,.31-1.56,.46-2.37,.44-1.65,0-2.88-.47-3.75-1.41-.87-.94-1.3-2.29-1.3-4.07s.44-3.13,1.34-4.09c1-1,2.38-1.53,3.79-1.44,.75,0,1.49,.14,2.2,.4,.12,.04,.24,.11,.32,.2,.07,.13,.1,.27,.09,.42v.55c0,.28-.09,.41-.27,.41-.11,0-.23-.03-.33-.06-.56-.16-1.14-.25-1.72-.25-1.15,.04-1.99,.33-2.5,.92h0Z" fill="#fff" fill-rule="evenodd"/><path d="M45.51,20.02c.2-.03,.38,.11,.41,.31,0,.03,0,.07,0,.1v9.61c.03,.2-.11,.38-.31,.41-.03,0-.07,0-.1,0h-1.21c-.2,.03-.38-.11-.41-.31h0s0-.07,0-.1v-9.6c-.03-.2,.11-.38,.3-.41,.03,0,.07,0,.1,0h1.21Z" fill="#fff" fill-rule="evenodd"/><path d="M45.87,16.03c.46,.54,.46,1.35,0,1.9-.55,.48-1.36,.48-1.91,0-.47-.54-.47-1.36,0-1.9,.55-.48,1.36-.48,1.91,0Z" fill="#fff" fill-rule="evenodd"/></svg>
