<?xml version="1.0" encoding="UTF-8"?><svg id="Lager_1" xmlns="http://www.w3.org/2000/svg" viewBox="0 0 60 60"><path d="M38.35,8.2h.98c.18,5.15-4.05,10.44-9.42,10.35-.09-4.95,3.62-9.4,8.44-10.35Z" fill="#fff"/><path d="M21.44,18.71c3.15-.56,5.91,1.34,8.9,1.86,2.83-.6,5.46-2.24,8.44-1.99,3.32-.07,6.4,1.64,8.49,4.13-3.19,2.07-5.49,5.73-4.8,9.63,.22,3.6,2.98,6.29,5.97,7.93-1.61,4.06-3.82,8.23-7.51,10.76-3.71,2.35-7.41-1.9-11.27-.93-1.92,.37-3.71,1.21-5.6,1.7h-1.53c-1.25-.49-2.45-1.17-3.4-2.15-4.22-4.39-6.9-10.21-7.58-16.25v-3.25c.33-5.41,4.32-10.71,9.88-11.45Z" fill="#fff"/></svg>