<?xml version="1.0" encoding="UTF-8"?><svg id="Lager_1" xmlns="http://www.w3.org/2000/svg" viewBox="0 0 60 60"><path d="M43.79,14.14h10.51v6.15h-10.51v-6.15Z" fill="#fff" fill-rule="evenodd"/><path d="M43.79,22.67h10.51v6.15h-10.51v-6.15Z" fill="#fff" fill-rule="evenodd"/><path d="M43.79,31.19h10.51v6.15h-10.51v-6.15Z" fill="#fff" fill-rule="evenodd"/><path d="M5.71,39.71h10.51v6.15H5.71v-6.15Z" fill="#fff" fill-rule="evenodd"/><path d="M18.39,39.71h10.51v6.15h-10.51v-6.15Z" fill="#fff" fill-rule="evenodd"/><path d="M31.1,39.71h10.51v6.15h-10.51v-6.15Z" fill="#fff" fill-rule="evenodd"/><path d="M43.79,39.71h10.51v6.15h-10.51v-6.15Z" fill="#fff" fill-rule="evenodd"/><path d="M31.1,31.19h10.51v6.15h-10.51v-6.15Z" fill="#fff" fill-rule="evenodd"/><path d="M18.39,31.19h10.51v6.15h-10.51v-6.15Z" fill="#fff" fill-rule="evenodd"/><path d="M18.39,22.67h10.51v6.15h-10.51v-6.15Z" fill="#fff" fill-rule="evenodd"/></svg>