<?xml version="1.0" encoding="UTF-8"?><svg id="Lager_1" xmlns="http://www.w3.org/2000/svg" viewBox="0 0 60 60"><circle id="circle27" cx="29.6" cy="29.7" r="9.74" fill="#fff"/><path id="path35" d="M29.6,24.59v5.99c-.34-.19-.73-.32-1.14-.32-1.27,0-2.26,1.02-2.26,2.26s1.02,2.26,2.26,2.26,2.36-1.02,2.36-2.26v-5.5h2.19v-2.43h-3.41Z" fill="#1d1d1b"/><g><path d="M47.46,27.59h0l-3.22-1.83c.38,1.35,.59,2.77,.59,4.24s-.2,2.87-.58,4.21l3.21-1.82c2.34-1.31,2.34-3.46,0-4.8Z"/><path d="M13.68,30c0-7.21,4.9-13.27,11.54-15.05l-10.23-5.81c-1.39-.78-2.63-.71-3.38,.02-.54,.51-.83,1.34-.83,2.41V48.4c0,1.07,.32,1.9,.83,2.41,.78,.75,2,.83,3.38,.02l10.2-5.8c-6.63-1.79-11.52-7.84-11.52-15.04Z" fill="#fff"/></g></svg>