<?xml version="1.0" encoding="UTF-8"?><svg xmlns="http://www.w3.org/2000/svg" viewBox="0 0 245.59 245.59"><path d="M0,245.59h245.59V0H0v245.59ZM229.53,143.09c-23.99-1.56-43.76,9.3-63.42,20.7-7.48,4.34-15.25,8.19-23.03,11.97-7.4,3.6-14.23,2.88-19.72-3.87-11.71-14.4-23.4-28.81-35.09-43.21.41-.33.82-.66,1.23-.99,5.1,6.45,10.02,13.04,15.34,19.3,5.6,6.58,11.51,12.91,17.42,19.22,4.91,5.23,10.99,6.06,17.42,3.52,4.47-1.76,8.73-4.07,13.02-6.26,12-6.1,23.72-12.85,36.03-18.23,12.1-5.29,25.02-6.75,38.13-3.49.9.22,1.76.62,2.67,1.34ZM208.32,128.81c1.45.28,2.84.92,4.25,1.4-.05.43-.09.86-.14,1.29-1.19.25-2.37.7-3.56.71-16.51.08-31.74,5.09-46.65,11.66-7.14,3.15-14.44,6.02-21.87,8.39-9.02,2.88-17.4.8-23.88-6.04-10.52-11.11-20.78-22.48-30.76-34.08-7.25-8.42-13.87-17.37-20.07-26.74,1.22,1.4,2.42,2.83,3.68,4.19,13.98,15.17,27.76,30.53,42.03,45.42,8.21,8.57,18.4,10.77,29.82,6.74,11.45-4.04,22.88-8.22,34.51-11.68,10.66-3.17,21.67-3.42,32.64-1.28ZM50.12,59.15c11.16,10,21.85,20.52,32.87,30.68,5.26,4.85,10.76,9.45,16.27,14.01,13.89,11.48,29.64,14.8,47.31,11.42,9.1-1.74,18.46-2.19,27.73-2.9,3.91-.3,6.58,1.82,7.4,6.35-15.09,3.64-29.7,7.58-44.5,10.59-10.28,2.09-19.79-1.58-27.3-8.37-12.45-11.26-24.26-23.23-36.14-35.11-7.53-7.53-14.47-15.67-22.11-23.09-4.96-4.81-10.69-8.83-15.86-13.67,4.8,3.33,10.01,6.21,14.33,10.09Z" fill="#fff" stroke-width="0"/></svg>
