<?xml version="1.0" encoding="UTF-8"?><svg id="Lager_1" xmlns="http://www.w3.org/2000/svg" viewBox="0 0 51.29 51.29"><circle cx="25.64" cy="25.64" r="1.72" fill="#fff"/><path d="M33.65,36.9s-.05-.05-.08-.08c-.38-.39-.61-.93-.61-1.51,0-1.2,.98-2.18,2.18-2.18,.71,0,1.34,.34,1.74,.87l4.38,4.39c2.84-3.47,4.54-7.91,4.54-12.75,0-11.14-9.03-20.16-20.16-20.16S5.48,14.51,5.48,25.64s9.03,20.16,20.16,20.16c4.77,0,9.14-1.66,12.6-4.42l-4.58-4.48Zm-8.01-3.33c-4.38,0-7.93-3.55-7.93-7.93s3.55-7.93,7.93-7.93,7.93,3.55,7.93,7.93-3.55,7.93-7.93,7.93Z" fill="#fff"/></svg>