<?xml version="1.0" encoding="UTF-8"?><svg id="Lager_1" xmlns="http://www.w3.org/2000/svg" viewBox="0 0 60 60"><path d="M30,9.96h0c-11.07,0-20.04,8.97-20.04,20.04s8.97,20.04,20.04,20.04,20.04-8.97,20.04-20.04S41.07,9.96,30,9.96Zm9.19,28.9c-.36,.59-1.13,.78-1.72,.41-4.71-2.87-10.63-3.52-17.6-1.93-.67,.15-1.34-.27-1.5-.94-.15-.67,.27-1.34,.94-1.5,7.63-1.74,14.18-.99,19.46,2.24,.59,.36,.78,1.13,.41,1.72Zm2.45-5.46h0c-.45,.73-1.41,.97-2.15,.51-5.39-3.31-13.6-4.27-19.97-2.34-.83,.25-1.7-.22-1.95-1.04-.25-.83,.22-1.7,1.04-1.95,7.28-2.21,16.33-1.14,22.51,2.66,.73,.45,.97,1.41,.51,2.15Zm.21-5.68h0c-6.46-3.84-17.11-4.19-23.28-2.32-.99,.3-2.04-.26-2.34-1.25-.3-.99,.26-2.04,1.25-2.34,7.08-2.15,18.85-1.73,26.28,2.68,.89,.53,1.18,1.68,.66,2.57-.53,.89-1.68,1.18-2.57,.66Z" fill="#fff"/></svg>