<?xml version="1.0" encoding="UTF-8"?><svg id="Lager_1" xmlns="http://www.w3.org/2000/svg" viewBox="0 0 60 60"><path d="M33.86,44.32l-1.75,4.85h3.44l-1.69-4.85Zm.88-1.63l3.98,10.99h-1.61l-1.14-3.29h-4.31l-1.19,3.29h-1.52l4.13-10.99h1.66Z" fill="#fff"/><g><path d="M23.01,44.32l-1.76,4.85h3.45l-1.69-4.85Zm-3.39,9.36h-1.53l4.13-10.99h1.66l3.98,10.99h-1.6l-1.15-3.29h-4.31l-1.19,3.29Z" fill="#fff"/><path d="M49.17,45.98h-1.46c-.16-.7-.48-1.25-.96-1.66-.48-.41-1.16-.61-2.03-.61-1.06,0-1.92,.38-2.57,1.14-.65,.76-.98,1.92-.98,3.49,0,1.28,.3,2.32,.88,3.12s1.47,1.19,2.64,1.19c1.08,0,1.89-.42,2.46-1.26,.3-.44,.52-1.02,.67-1.75h1.46c-.13,1.16-.55,2.13-1.27,2.91-.86,.95-2.03,1.41-3.49,1.41-1.26,0-2.32-.38-3.18-1.16-1.13-1.02-1.69-2.6-1.69-4.73,0-1.62,.42-2.95,1.27-3.99,.91-1.13,2.18-1.69,3.79-1.69,1.38,0,2.44,.36,3.2,1.1,.76,.73,1.18,1.56,1.27,2.49" fill="#fff"/><path d="M29.76,39.02h-6.23c-10.59-8.14-12.79-15.68-12.79-20.51v-.05c0-1.84,.37-3.72,1.08-5.43,2.17-3.95,5.9-5.9,10.19-6.64,4.53-.77,9.68-.2,14.28,.79,4.44,.96,8.82,2.33,13,4.1v2.2c-3.82-1.48-7.19-2.53-10.17-3.23-6.68-1.58-11.34-1.4-14.58-.52-3.41,.93-5.23,2.64-6.15,3.9-.35,.48-.64,1.01-.86,1.57-3.73,10.37,7.03,19.92,12.25,23.81" fill="#fff"/></g><g><path d="M39.05,39.02h-4.83c-7.5-5.35-10.32-10.26-11.19-13.98-.71-3.04-.12-5.29,.28-6.33,.09-.22,.18-.44,.29-.65,.64-1.11,1.44-2.01,2.35-2.73,5.46-4.29,15.09-2.22,20.09-.71,1.09,.33,2.16,.69,3.21,1.1v2.12c-2.59-.9-5.29-1.5-8.01-1.79-3.91-.41-8.33-.11-11.01,2.53-.38,.38-.73,.8-1.03,1.28-2.59,4.07-1.14,8.23,1.58,11.76,2.4,3.1,5.77,5.73,8.26,7.39" fill="#fff"/><path d="M49.24,19.77v19.26h-5.78c-3.68-2.24-7.24-5.56-9.1-8.92-1.45-2.61-1.87-5.25-.54-7.44,2.16-3.52,6.31-4.15,9.76-3.94,1.92,.11,3.83,.47,5.67,1.04" fill="#fff"/></g></svg>