<?xml version="1.0" encoding="UTF-8"?><svg id="Lager_1" xmlns="http://www.w3.org/2000/svg" viewBox="0 0 60 60"><g><path d="M46.88,16.18l-10.38-9.33s-.1-.06-.16-.06H13.28c-.13,0-.23,.11-.23,.23V50.7c0,.13,.11,.23,.23,.23H46.72c.13,0,.23-.1,.23-.23V16.35c0-.07-.03-.13-.08-.17ZM23.63,48.57l-.8-2.25h-3.3l-.8,2.25h-1.47l3.23-8.87h1.63l3.15,8.87h-1.64Zm4.55,0h-1.6v-8.87h1.6v8.87Zm7.57-7.61h-3.85v2.65h3v1.23h-3v3.73h-1.59v-8.87h5.44v1.25Zm7.02,0h-3.85v2.65h3v1.23h-3v3.73h-1.59v-8.87h5.44v1.25Zm3.72-3.34H13.51V7.25h22.74l10.24,9.2v21.16Z" fill="#fff"/><polygon points="21.15 41.59 19.91 45.14 22.43 45.14 21.19 41.59 21.15 41.59" fill="#fff"/></g><path d="M46.72,16.81h-10.38c-.13,0-.23-.1-.23-.23V7.02c0-.13,.11-.23,.23-.23s.23,.1,.23,.23v9.33h10.15c.13,0,.23,.1,.23,.23s-.1,.23-.23,.23Z" fill="#fff"/><path d="M37.41,27.89v-11.17l-1.13-.03-.18-1.67h-.04l-11.4,2.61,.1,3.64v7.88c-.7-.53-1.69-.76-2.74-.57-1.87,.34-3.23,1.89-3.04,3.47,.19,1.58,1.86,2.58,3.72,2.24,1.82-.33,3.16-1.82,3.05-3.36h.03v-9.93l10.61-2.74v8.15c-.69-.48-1.64-.7-2.66-.51-1.87,.34-3.23,1.89-3.04,3.47,.19,1.58,1.86,2.58,3.72,2.24,1.87-.34,3.23-1.89,3.04-3.47-.01-.09-.03-.17-.05-.26Z" fill="#fff"/></svg>