<?xml version="1.0" encoding="UTF-8"?><svg id="Lager_1" xmlns="http://www.w3.org/2000/svg" viewBox="0 0 60 60"><path d="M33.92,19.41c6,0,8.59,10.05,10.75,16.67,1.14-4.76,.54-5.78,1.77-5.78,.45,0,.92,.31,.92,.87,0,.04-.01,.14-.03,.29l-.09,.6c-.24,1.58-.84,4.9-1.49,7.11,5.26,13.8,9.18-4.37,9.62-8.09,.06-.54,.47-.78,.88-.78,.55,0,.99,.41,.91,1.03-.94,6.01-2.39,15.37-8.35,15.37-3.29,0-5.14-2.57-6.6-5.52-3.65-7.17-5.33-19.22-8.91-19.22-1.15,0-2,1.2-2.06,1.2-.11,0-.19-.49-1.27-1.82,1.02-1.17,2.42-1.91,3.96-1.91Zm-19.53,.01c9.39,0,10.22,24.77,15.54,24.77,.62,0,1.3-.38,2.03-1.23,.41,.69,.82,1.3,1.25,1.84-1.06,1.21-2.38,1.89-4.03,1.89-5.94,0-8.49-9.94-10.68-16.65-.52,2.15-.79,4.1-.89,4.98-.07,.56-.47,.81-.88,.81-.46,0-.92-.31-.92-.87h0v-.13c.31-2.21,.93-5.55,1.61-7.88-.91-2.39-2.05-5.01-3.73-5.01-3.39,0-5.34,8.52-5.88,13.07-.06,.56-.47,.81-.88,.81-.45,0-.91-.31-.91-.87,0-.04,0-.09,0-.13,.96-6.94,2.75-15.4,8.37-15.4Zm9.74-.01c1.68,0,3.49,.88,5.05,2.94,.09,.1,.96,1.46,1.23,1.93,3.81,6.91,5.66,19.95,9.28,19.95,.63,0,1.31-.39,2.06-1.27,.41,.69,.83,1.3,1.25,1.84-1.06,1.21-2.38,1.89-4.03,1.89-9.33,0-10.35-24.76-15.49-24.76-1.16,0-2.02,1.21-2.08,1.21-.11,0-.19-.49-1.27-1.82,1.05-1.2,2.46-1.91,3.98-1.91Z" fill="#fff"/></svg>