<svg xmlns="http://www.w3.org/2000/svg" viewBox="0 0 220.02 286.48"><path fill="#fff" d="M218.53 65.03h-67.37c-.84 0-1.49-.65-1.49-1.49V1.49c-.01-.84.71-1.49 1.49-1.49s1.49.65 1.49 1.49v60.55h65.88c.84 0 1.49.65 1.49 1.49s-.65 1.49-1.49 1.49ZM114.7 221.34c-2.91 0-4.96.26-6.08.51v19.51c1.28.34 3 .43 5.13.43 7.87 0 12.67-3.85 12.67-10.61s-4.45-9.84-11.73-9.84Z"/><path fill="#fff" d="M219.5 60.94h.06L152.2.39s-.65-.39-1.04-.39H1.49C.65 0 0 .71 0 1.49v283.49c0 .84.71 1.49 1.49 1.49h217.03c.84 0 1.49-.65 1.49-1.49V62.05c0-.45-.19-.84-.52-1.1ZM78.85 271.41l-5.22-16.35H55.31l-4.96 16.35H39.48l18.49-57.69h13.44l18.74 57.69h-11.3Zm53.14-27.56c-4.19 4.19-10.78 6.16-18.23 6.16-1.97 0-3.77-.09-5.13-.34v21.74H98.19v-56.92c3.77-.68 8.99-1.2 16.09-1.2 7.7 0 13.35 1.63 17.03 4.71 3.42 2.82 5.65 7.36 5.65 12.75s-1.71 10.01-4.96 13.09Zm48.87 27.56h-34.83v-57.69h33.55v8.64h-23.02v14.89h21.74v8.56h-21.74v16.95h24.31v8.64ZM2.99 200.09V2.99h147.59l66.46 59.71v137.4H2.99Z"/><path fill="#fff" d="M64.38 222.11h-.17c-.86 3.34-1.71 7.36-2.74 10.78l-4.45 14.21h14.81l-4.54-14.21c-1.11-3.51-2.05-7.45-2.91-10.78ZM159.35 127.4c-2.63-4.41-2.42-8.92-3.36-13.44-.63-3.07-2.09-6.44-4.25-8.61-2.43-2.44-3.13-4.62-2.18-7.64.7-2.22 1.35-4.47 2.22-6.63 1.68-4.18.58-9.24-2.29-10.83-4.82-2.67-9.56-5.49-14.55-8.37-5.13.67-10 2.86-11.01 9.34-6.66-1.95-10.44.02-12.32 5.88-2.18 6.8-.37 9.85 8.87 13.01-4.01 4.12-6.96 9.14-11.3 11.18-9 4.23-13.97 10.85-15.72 20.16-.83 4.42-3.12 7.68-7.28 6.89-1.79-.34-3.62-4.95-3.93-7.79-.91-8.49 3.49-15.46 7.97-22.13 4.03-5.99 6.04-12.36 5.39-19.57-1.37-15.29-16.96-23.58-29.5-15.67-4.63 2.92-7.22 8.25-4.87 12.53 1.45 2.64 4.76 5.07 7.68 5.81 2.19.56 6.45-1.09 7.33-2.93.97-2.02-.89-5.39-1.47-8.18-.01-.07 0-.14.01-.21.06-.22.23-.47.32-.69.79.09 1.55.27 2.28.51.32.11.64.23.95.37.04.02.09.03.13.05 2.7 1.2 4.88 3.4 6.04 6.17.1.23.18.46.26.69.21.62.39 1.27.5 1.94.19 1.2.21 2.47 0 3.78-.82 5.45-3.14 10.74-5.27 15.89-2.5 6.03-6.63 11.58-8.12 17.81-3.49 14.63-.44 20.88 11 26.31-4.03.64-6.84.68-9.35 1.57-3.17 1.13-6.47 2.5-9.04 4.59-3.15 2.56-3.48 6.04 1.22 7.28 6.24 1.64 12.65 3.32 19.04 3.5 10.68.31 21.4-.55 32.1-.9 10.8-.36 15.39-4.76 15.29-15.51-.03-3.35-.93-6.95-2.39-9.97-2.99-6.2-6.61-12.09-10.02-18.08-2.82-4.95-2.52-11.6.61-15.19 1.28 2.38 2.05 5.45 4.01 7.18 7.59 6.69 15.36 13.22 23.52 19.18 1.88 1.37 6.8 1.42 8.19 0 2.17-2.23 4.39-7.36 3.26-9.27Z"/></svg>
