<?xml version="1.0" encoding="UTF-8"?><svg id="Lager_1" xmlns="http://www.w3.org/2000/svg" viewBox="0 0 60 60"><path d="M32.4,16.65c.27,.03,.54,.07,.8,.1,1.41,.16,2.78,.47,4.11,.98,.04,.02,.09,.04,.13,.06,.02,.01,.04,.03,.07,.05,0,.06,0,.12,0,.18,0,1.13,0,2.27,0,3.4,0,.09,0,.19-.04,.28-.04,.14-.16,.19-.28,.1-.09-.07-.17-.16-.24-.26-.48-.74-1.06-1.4-1.75-1.95-.83-.65-1.75-1.08-2.79-1.23-.9-.13-1.78-.07-2.65,.18-.17,.05-.34,.13-.51,.21-.98,.49-1.33,1.38-1.19,2.38,.07,.52,.32,.96,.66,1.36,.31,.36,.67,.66,1.05,.93,.68,.49,1.42,.88,2.16,1.27,1.01,.54,2.04,1.05,3.01,1.67,.78,.49,1.51,1.04,2.13,1.73,.79,.86,1.31,1.86,1.47,3.03,.03,.18,.05,.36,.05,.55,.02,1.04-.02,2.07-.27,3.09-.02,.09-.05,.18-.08,.27-.07,.21-.18,.31-.3,.28-.14-.03-.2-.17-.17-.4,.02-.19,.03-.38,.05-.57,.16-1.65-.48-2.97-1.69-4.05-.71-.63-1.49-1.15-2.33-1.58-1.08-.56-2.18-1.08-3.28-1.61-1.09-.52-2.19-1.04-3.21-1.69-.76-.48-1.47-1.02-2.02-1.74-.87-1.12-1.13-2.37-.74-3.74,.27-.96,.91-1.63,1.75-2.13,.74-.44,1.54-.69,2.37-.86,.66-.14,1.34-.21,2.02-.25,.08,0,.15-.03,.23-.04h1.48Z" fill="#fff"/><path d="M41.33,40.45c.45-7.75,.56-15.47,0-23.21,.06,0,.13-.01,.2-.01,1.95,0,3.89-.01,5.84,0,1.54,.01,3.07,.17,4.56,.62,1.41,.42,2.66,1.1,3.69,2.17,.89,.93,1.49,2.04,1.9,3.26,.33,.98,.52,1.99,.63,3.01,.13,1.25,.17,2.5,.09,3.75-.11,1.62-.4,3.19-1.06,4.69-1.08,2.45-2.9,4.09-5.42,4.98-1.09,.38-2.21,.6-3.37,.68-.62,.04-1.24,.06-1.86,.06-1.64,0-3.27,0-4.91,0h-.3Zm4.57-11.21c.05,2.11,.1,4.76,.16,7.41,0,.29,.04,.59,.09,.88,.14,.77,.59,1.2,1.33,1.29,.5,.06,1,.03,1.5-.07,1.12-.23,2-.84,2.68-1.75,.47-.63,.79-1.33,1.05-2.06,.5-1.44,.7-2.94,.81-4.46,.09-1.3,.1-2.6,.01-3.9-.06-1-.19-1.98-.44-2.95-.25-.98-.6-1.92-1.19-2.75-1.07-1.5-2.55-2.11-4.36-1.97-.73,.05-1.16,.44-1.35,1.15-.04,.17-.08,.34-.09,.52-.04,.67-.07,1.34-.08,2.01-.04,2.04-.07,4.08-.11,6.66Z" fill="#fff"/><path d="M22.74,39.62v-.2c0-1.48,0-2.95,0-4.43,0-.09,0-.19,.04-.28,.04-.12,.13-.15,.22-.06,.09,.09,.17,.19,.23,.3,.35,.63,.74,1.23,1.2,1.78,.59,.71,1.26,1.33,2.05,1.81,.85,.51,1.77,.81,2.77,.78,.5-.01,1-.08,1.48-.25,1.19-.42,1.86-1.27,2.1-2.49,.11-.55,.14-1.11,.03-1.66-.14-.68-.48-1.25-.94-1.75-.54-.59-1.17-1.06-1.85-1.47-.85-.52-1.71-1.03-2.56-1.54-.85-.51-1.68-1.05-2.43-1.7-.82-.72-1.51-1.54-1.94-2.55-.42-.99-.55-2.02-.43-3.09,.03-.27,.07-.54,.11-.8,.02-.09,.05-.19,.11-.26,.12-.16,.31-.12,.37,.07,.02,.07,.03,.14,.03,.21,.01,1.49,.64,2.69,1.69,3.7,.62,.6,1.32,1.09,2.05,1.53,1.08,.65,2.22,1.18,3.36,1.73,1.03,.5,2.07,.99,3.06,1.58,.77,.47,1.51,.99,2.11,1.67,.55,.62,.93,1.32,1.03,2.14,.05,.4,.04,.81,.03,1.22-.02,.62-.14,1.22-.34,1.8-.47,1.33-1.38,2.23-2.66,2.78-.72,.3-1.47,.48-2.24,.57-2.04,.22-4.06,.09-6.07-.33-.82-.17-1.62-.42-2.4-.73-.07-.03-.13-.06-.2-.09Z" fill="#fff"/><path d="M20.39,26.04c-.14-1.15-.39-2.28-.82-3.36-.8-1.98-2.13-3.46-4.08-4.36-.87-.4-1.78-.65-2.72-.82-1.21-.22-2.44-.29-3.67-.29-1.75,0-3.51,0-5.26,0h-.25c.56,7.76,.44,15.48,0,23.21,.08,0,.15,.01,.22,.01,1.87,0,3.75,0,5.62,0,1.4,0,2.78-.18,4.13-.59,2.84-.86,4.87-2.64,6-5.41,.63-1.53,.89-3.14,.96-4.78,.05-1.21,.02-2.42-.13-3.63Zm-4.7,5.29c-.14,1.34-.37,2.65-.85,3.91-.29,.76-.67,1.47-1.21,2.08-.8,.91-1.8,1.4-3,1.49-.38,.03-.75,.03-1.12-.06-.51-.12-.85-.42-1.02-.92-.11-.33-.15-.67-.17-1.01-.11-2.66-.15-5.33-.17-7.99,.04-2.33,.09-4.66,.14-6.99,.01-.49,.05-.97,.08-1.46,0-.12,.04-.24,.07-.35,.19-.71,.64-1.1,1.38-1.15,1.91-.13,3.43,.57,4.48,2.2,.56,.87,.89,1.83,1.12,2.83,.29,1.28,.39,2.58,.42,3.89,.02,1.17-.02,2.35-.14,3.51Z" fill="#fff"/></svg>