<?xml version="1.0" encoding="UTF-8"?><svg id="Lager_1" xmlns="http://www.w3.org/2000/svg" viewBox="0 0 60 60"><path d="M24.81,21.57l1.12,.02-.93-3.58c-.9,0-1.71,.09-2.45,.29-.73,.19-1.36,.5-1.89,.92-.51,.4-.91,.93-1.19,1.57-.28,.63-.42,1.39-.42,2.27v.3h-1.23l-.69,3.2h1.91v9.55l3.67-.41v-9.13h2.11v-3.2l-2.11,.04c0-.57,.16-1.06,.5-1.36,.34-.31,.88-.48,1.59-.46Z" fill="#fff"/><polygon points="26.92 18.9 26.92 36.17 30.64 35.71 30.63 18.48 26.92 18.9" fill="#fff"/><path d="M40.99,24.01c-.87-.78-2.18-1.18-3.53-1.18-.92,0-1.66,.06-2.24,.18s-1,.23-1.24,.33l-.56,3.35c.32-.16,.73-.3,1.24-.42,.51-.14,1.16-.24,1.79-.24,.84,0,1.43,.17,1.8,.51,.39,.34,.58,.8,.58,1.38v.69c-.67-.71-1.65-1.07-2.94-1.08-2.56-.02-4.29,1.79-4.29,4.4s1.86,4.42,4.29,4.4c1.22,0,2.21-.48,2.89-1.3v1.1l3.21-.31s.25-5.66,.24-8.44c0-1.82-.24-2.47-1.26-3.39Zm-4.06,9.31c-1.06,0-1.8-.67-1.8-1.64s.79-1.64,1.8-1.64,1.8,.66,1.8,1.64-.74,1.64-1.8,1.64Z" fill="#fff"/><path d="M52.44,31.91c-.54,.58-1.31,.92-2.22,.92-1.81,0-3.18-1.5-3.18-3.26,0-1.93,1.46-3.26,3.18-3.26,.85,0,1.6,.32,2.15,.88l1.95-2.79c-1.16-1.01-2.68-1.59-4.37-1.59-3.68,0-6.59,2.75-6.59,6.76s2.71,6.77,6.59,6.77c1.79,0,3.33-.58,4.47-1.61l-1.98-2.81Z" fill="#fff"/><rect x="7.34" y="26.61" width="1.52" height="2.15" fill="#fff"/><rect x="7.34" y="29.56" width="1.52" height="2.15" fill="#fff"/><rect x="7.34" y="23.66" width="1.52" height="2.15" fill="#fff"/><rect x="7.34" y="38.4" width="1.52" height="2.15" fill="#fff"/><rect x="7.34" y="35.45" width="1.52" height="2.15" fill="#fff"/><rect x="7.34" y="32.51" width="1.52" height="2.15" fill="#fff"/><rect x="7.34" y="20.71" width="1.52" height="2.15" fill="#fff"/><rect x="7.34" y="17.81" width="1.52" height="2.15" fill="#fff"/><rect x="9.74" y="26.61" width="1.52" height="2.15" fill="#fff"/><rect x="9.74" y="23.66" width="1.52" height="2.15" fill="#fff"/><rect x="9.74" y="29.56" width="1.52" height="2.15" fill="#fff"/><rect x="9.74" y="35.45" width="1.52" height="2.15" fill="#fff"/><rect x="9.74" y="32.51" width="1.52" height="2.15" fill="#fff"/><rect x="9.74" y="38.4" width="1.52" height="2.15" fill="#fff"/><rect x="12.13" y="29.56" width="1.52" height="2.15" fill="#fff"/><rect x="12.13" y="23.66" width="1.52" height="2.15" fill="#fff"/><rect x="12.13" y="26.61" width="1.52" height="2.15" fill="#fff"/><rect x="12.13" y="35.45" width="1.52" height="2.15" fill="#fff"/><rect x="12.13" y="38.4" width="1.52" height="2.15" fill="#fff"/><rect x="12.13" y="32.51" width="1.52" height="2.15" fill="#fff"/><rect x="12.13" y="20.71" width="1.52" height="2.15" fill="#fff"/><rect x="14.53" y="29.56" width="1.52" height="2.15" fill="#fff"/><rect x="14.53" y="38.4" width="1.52" height="2.15" fill="#fff"/><rect x="14.53" y="32.51" width="1.52" height="2.15" fill="#fff"/><rect x="14.53" y="35.45" width="1.52" height="2.15" fill="#fff"/></svg>