<?xml version="1.0" encoding="UTF-8"?><svg xmlns="http://www.w3.org/2000/svg" viewBox="0 0 60 60"><path id="path2521" d="M15.08,43c-.55-.02-1.21-.07-1.48-.11-1.96-.27-3.98-1.14-5.52-2.38-.24-.19-.72-.65-1.08-1.02-1.6-1.66-2.63-3.82-2.89-6.1-.09-.76-.04-2.6,.08-3.37,.4-2.46,1.44-4.83,2.97-6.74,2.73-3.41,7.26-5.79,11.95-6.25,4.15-.41,7.96,1.2,9.97,4.22,.54,.81,1.16,2.16,1.09,2.38-.07,.22-.24,.12-.34-.19-.35-1.07-1.09-2.24-1.94-3.08-1.07-1.06-2.77-1.92-4.44-2.24-2.07-.4-4.18-.24-6.61,.49-2.77,.84-5.04,2.16-6.88,4-1.96,1.96-3.16,4.26-3.68,7.05-.15,.78-.15,2.9,0,3.57,.36,1.67,1.09,3,2.28,4.14,1.25,1.2,2.88,2.03,4.73,2.41,.76,.15,2.66,.22,3.53,.11,2.42-.28,4.41-1.21,5.8-2.7,.75-.81,1.12-1.45,1.88-3.27,.25-.61,.71-1.67,1.01-2.36,1.23-2.79,1.22-2.76,.99-2.98-.11-.11-.17-.12-.4-.09-.46,.06-.86,.41-1.19,1.06-.09,.17-.69,1.51-1.34,2.97l-1.18,2.66h-2.12c-1.98,0-2.12,0-2.12-.1,0-.05,.59-1.42,1.31-3.03,1.1-2.47,1.31-2.97,1.31-3.2,0-.24-.02-.27-.16-.33-.4-.15-.91,.1-1.27,.63-.12,.17-.78,1.58-1.47,3.12-.69,1.55-1.27,2.83-1.3,2.85-.02,.02-.98,.05-2.11,.06-1.79,.02-2.08,0-2.12-.07-.05-.08,.8-2.03,3.25-7.49l.42-.92h2.05c2,.03,2.05,.03,2.07,.14,.04,.2,.09,.21,.41,.07,.64-.28,1.27-.4,2.13-.4,.66,0,.86,.02,1.19,.12,.46,.14,.86,.39,1.02,.63l.11,.17,.46-.22c1.55-.73,3.31-.92,4.45-.5,.41,.15,.89,.6,1.03,.95,.15,.39,.13,1.01-.05,1.55-.35,1.03-2.63,5.99-3.33,7.23-1.67,2.98-3.54,4.75-6.09,5.75-1.07,.42-2.63,.74-3.91,.8-1.26,.06-1.49,.06-2.46,.02Zm12.99-3.46s.44-1.12,1.02-2.43c2.02-4.53,2.36-5.29,3.49-7.83l1.14-2.56h4.47l.02,.16c.02,.19,.03,.19,.42,.01,.61-.28,1.14-.38,1.98-.39,1.74,0,2.76,.51,3.08,1.56,.51,1.68-1.03,4.76-3.06,6.11-1.17,.78-2.25,1.13-3.71,1.19-.8,.04-1.18-.03-1.78-.32-.19-.09-.35-.16-.36-.16,0,0-.44,.97-.96,2.14-.52,1.17-1,2.23-1.06,2.34l-.11,.21h-2.27c-1.44,0-2.28-.02-2.3-.06Zm8.75-5.88c.62-.26,1.4-1.42,2.1-3.15,.35-.85,.5-1.48,.47-1.96-.02-.3-.05-.41-.13-.47-.4-.29-1.23,.27-1.88,1.26-.55,.85-1.23,2.34-1.42,3.14-.12,.49-.09,.99,.06,1.15,.13,.14,.5,.15,.79,.03Zm8.66,1.64c-.76-.1-1.18-.23-1.81-.52-.43-.2-.62-.34-.96-.67-.23-.23-.41-.44-.4-.47,.04-.1,2.15-1.66,2.25-1.66,.05,0,.26,.06,.47,.14,.32,.12,.37,.15,.36,.27-.08,.79-.08,1.02-.02,1.18,.17,.41,.78,.59,1.52,.43,.69-.14,1.11-.38,1.67-.94,.72-.72,1.11-1.55,1.07-2.24-.03-.43-.17-.66-.52-.83-.22-.11-.35-.12-1.22-.12-.83,0-.98-.01-1.01-.09-.03-.08,.38-1.08,.51-1.26,.04-.05,.25-.07,.72-.07,.76,0,1.14-.08,1.76-.37,.87-.41,1.68-1.45,1.84-2.36,.05-.32,.05-.39-.04-.58-.14-.3-.43-.44-.9-.44-.62,0-1.23,.23-1.66,.63-.29,.27-.44,.55-.48,.93l-.03,.28-.51,.16c-.28,.09-.54,.15-.58,.13-.08-.03-1.04-1.56-1.04-1.66,0-.09,.81-.63,1.36-.9,1.4-.7,3.41-1.07,5.13-.94,1.88,.14,2.9,.79,2.99,1.89,.11,1.41-1.11,2.79-3.08,3.48-.25,.09-.48,.18-.5,.2-.03,.02,.11,.13,.31,.23,1.14,.61,1.47,1.64,.93,2.88-.41,.92-1.34,1.83-2.49,2.41-.52,.26-1.58,.63-2.19,.75-1.08,.22-2.37,.26-3.42,.12Z" fill="#fff"/></svg>
