<?xml version="1.0" encoding="UTF-8"?><svg id="Lager_1" xmlns="http://www.w3.org/2000/svg" viewBox="0 0 60 60"><path d="M29.38,38.51c.09,.26,.4,.44,.61,.66,.18-.21,.44-.4,.51-.64,.5-1.65,.97-3.3,1.46-5h-4.3c.59,1.72,1.14,3.36,1.73,4.99Z" fill="#fff"/><path d="M16.37,35.64c.07,.18,.31,.36,.5,.4,.1,.02,.33-.25,.38-.42,.21-.67,.37-1.36,.56-2.09h-2.14c.23,.74,.43,1.44,.69,2.12Z" fill="#fff"/><path d="M23.47,25.46c-.3-.72-.85-.73-1.22-.05-1.02,1.93-1.57,4.03-2.13,6.16h5.29c-.23-.86-.4-1.68-.66-2.48-.39-1.22-.79-2.45-1.29-3.63Z" fill="#fff"/><path d="M43,35.61c.07,.18,.3,.36,.49,.41,.09,.02,.32-.24,.38-.41,.23-.66,.41-1.34,.63-2.07h-2.15c.23,.75,.41,1.42,.65,2.08Z" fill="#fff"/><path d="M37.27,20.9c-.26,.37-.64,.71-.75,1.12-.85,3.15-1.65,6.31-2.48,9.55h6.31c-.76-3.26-1.49-6.44-2.27-9.61-.1-.4-.53-.71-.8-1.06Z" fill="#fff"/><path d="M30,9.35c-11.4,0-20.65,9.24-20.65,20.65s9.24,20.65,20.65,20.65,20.65-9.24,20.65-20.65S41.4,9.35,30,9.35Zm12,27.73c-.51-.85-.8-1.82-1.17-2.75-.11-.26-.17-.54-.26-.85-2.17,0-4.31-.01-6.45,.02-.17,0-.43,.32-.49,.53-.44,1.44-.78,2.9-1.27,4.32-.25,.73-.63,1.46-1.11,2.08-.69,.9-1.8,.94-2.54,.09-.51-.58-.94-1.29-1.22-2.01-.54-1.43-.98-2.89-1.4-4.36-.14-.48-.3-.7-.84-.69-1.67,.03-3.34,.03-5,0-.49,0-.67,.16-.81,.63-.27,.9-.62,1.79-1,2.65-.31,.69-.85,1.16-1.66,1.16-.83,0-1.46-.44-1.72-1.18-.58-1.63-1.07-3.28-1.66-5.11,1.55,0,2.84-.03,4.12,.01,.59,.02,.8-.18,.96-.74,.5-1.72,1.04-3.43,1.68-5.1,.28-.74,.76-1.46,1.3-2.05,.9-.99,2.16-.94,2.93,.15,.61,.87,1.08,1.87,1.45,2.88,.51,1.41,.85,2.88,1.3,4.31,.07,.21,.34,.51,.52,.52,1.53,.04,3.06,.02,4.6,.02,.75-3.02,1.45-5.95,2.21-8.85,.22-.83,.57-1.64,.95-2.42,.37-.78,.88-1.48,1.89-1.47,.99,.01,1.55,.69,1.88,1.48,.5,1.18,.98,2.4,1.28,3.64,.55,2.25,.98,4.54,1.45,6.81,.05,.25,.11,.51,.18,.81h4.53c-.37,2.01-.63,3.98-1.8,5.62-.72,1.01-2.16,.93-2.81-.16Z" fill="#fff"/></svg>