<?xml version="1.0" encoding="UTF-8"?><svg id="Lager_1" xmlns="http://www.w3.org/2000/svg" viewBox="0 0 60 60"><g transform="translate(-.81 1.62)"><path d="M12.5,45.15c-.15-.02-.52-.12-.82-.21-2.04-.62-3.56-2.15-4.27-4.28l-.2-.6V19.92l.2-.6c.72-2.14,2.18-3.61,4.32-4.31l.6-.2H47.68l.6,.2c.83,.28,1.55,.65,2.18,1.15,.98,.78,1.7,1.85,2.13,3.15l.2,.6v20.14l-.2,.6c-.7,2.12-2.11,3.55-4.26,4.31l-.56,.2H30.27c-9.62,0-17.63,0-17.77-.02h0Zm35.52-2.86c.8-.38,1.51-1.09,1.89-1.89l.29-.61V20.18l-.29-.61c-.38-.8-1.09-1.51-1.89-1.89l-.61-.29H12.59l-.61,.29c-.8,.38-1.51,1.09-1.89,1.89l-.29,.61v19.61l.29,.61c.49,1.05,1.58,1.92,2.62,2.13,.17,.04,8.05,.05,17.5,.05h17.19l.62-.3Zm-33.51-2.15c-.83-.16-1.26-1.21-.81-1.94,.35-.57,.47-.59,3.64-.59,2.67,0,2.87,0,3.13,.18,.83,.51,.85,1.67,.04,2.18-.32,.2-.38,.21-3.05,.21-1.5,0-2.82-.02-2.95-.04h0Zm11.64-1.23v-1.3l2.76-.03c2.49-.03,2.78-.04,2.99-.19,.5-.34,.56-.54,.59-1.9,.03-1.24,.03-1.25-.13-1-.09,.13-.33,.33-.55,.44-.36,.17-.5,.18-2.15,.15-1.69-.04-1.79-.04-2.38-.3-.83-.34-1.65-1.13-2.01-1.94-1.05-2.33,.39-4.94,2.95-5.35,.64-.1,2.71-.13,3.26-.04,.24,.04,.46,.17,.7,.4l.34,.34v-.81h2.61l-.03,5.44-.03,5.44-.24,.45c-.3,.57-.72,.97-1.28,1.23-.44,.21-.52,.21-3.92,.23l-3.47,.03v-1.31Zm5.76-6.62c.37-.24,.55-.58,.55-1.04,0-.48-.21-.85-.61-1.07-.36-.2-2.77-.27-3.37-.11-.94,.25-1.27,1.41-.59,2.05,.34,.32,.64,.37,2.26,.34,1.28-.02,1.56-.04,1.76-.18h0Zm6.96,6.62v-1.3l2.7-.03c2.47-.03,2.73-.04,2.99-.2,.53-.31,.61-.59,.64-1.98l.03-1.25-.21,.31c-.4,.6-.6,.64-2.67,.6-1.75-.04-1.86-.04-2.35-.27-1.06-.48-1.74-1.16-2.14-2.15-.15-.38-.2-.66-.2-1.37,0-1.23,.21-1.81,1.03-2.65,.99-1.04,1.92-1.3,4.37-1.24,1.45,.04,1.63,.1,1.98,.64l.18,.29v-.95l1.27,.03,1.27,.03v10.74l-.26,.49c-.34,.66-.55,.86-1.17,1.2l-.54,.28-6.94,.05,.02-1.29h0Zm5.71-6.59c.76-.49,.75-1.65-.02-2.11-.24-.15-.47-.17-1.89-.17-1.54,0-1.62,0-1.91,.21-.41,.3-.59,.67-.54,1.15,.05,.46,.39,.88,.82,1,.15,.04,.96,.07,1.79,.06,1.19,0,1.58-.04,1.74-.14h0Zm-29.26,2.69c-1.52-.28-2.78-1.62-3.03-3.22-.13-.77-.13-7.92,0-8.68,.28-1.71,1.56-2.95,3.31-3.23,.41-.06,1.24-.09,2.18-.06,1.39,.04,1.58,.06,2.19,.3,.57,.21,.77,.35,1.3,.89,.48,.49,.68,.77,.85,1.21l.22,.57v9.4l-.22,.49c-.46,1.03-1.07,1.65-2.13,2.12-.5,.22-.58,.23-2.4,.26-1.02,.03-2.05,0-2.27-.04h0Zm3.59-2.6c.18-.04,.44-.21,.58-.37l.26-.28,.03-4.2c.03-4.64,.04-4.52-.54-4.93-.28-.2-.36-.21-1.91-.21-1.79,0-2,.05-2.34,.62-.16,.26-.17,.55-.2,4.19-.02,2.72,0,4.03,.07,4.29,.11,.41,.51,.85,.82,.91,.41,.08,2.9,.05,3.21-.03h0Z" fill="#fff"/></g></svg>