<?xml version="1.0" encoding="UTF-8"?><svg id="Lager_1" xmlns="http://www.w3.org/2000/svg" viewBox="0 0 1024 1024"><g id="r7mfAe"><path d="M827.53,776.61v-439.88c0-3.54-4.67-7.41-8.03-7.13-3.91.33-7.5,4.62-7.5,8.63v438.38h-106.96l-1.06-1.13v-440.26c0-2.32-5.03-5.65-7.41-5.65-2.82,0-7.41,3.39-7.41,6.41v439.51l-1.06,1.13h-106.96V247.54h307.47c24.38,1.43,42.82,18.11,46.17,44.12,1.86,160.68.22,321.59.83,482.35l-1.09,2.6h-106.96ZM920.02,760.05v-461.71c0-17.52-13.88-34.24-30.71-34.24h-292.65v495.95h75.9l1.06-1.13v-424.46c0-11.21,12.95-21.44,22.95-21.44,9.42,0,22.95,10.07,22.95,20.69v425.21l1.06,1.13h75.9v-421.82c0-21.27,23.86-32.84,38.84-18.82,3.52,3.3,7.76,11.62,7.76,16.56v424.08h76.96Z"/><path d="M565.59,500.41h-108.02v-164.44c0-6.13-11.41-9.34-14.29-1.69l-.57,351.68c-.23,7.39,8.65,10.84,13.04,5.55.32-.38,1.82-3.14,1.82-3.33v-164.44h108.02v205.08c0,13.89-9.6,31-20.38,38.48-11.98,8.31-19.38,7.76-32.95,8.53-37.64,2.14-80.82,2.2-118.62.82-33.23-1.21-55.25-11-58.95-50.05v-429.04c.88-24.84,16.2-44.92,39.41-49.05,6.73.06,106.87-.96,143.87-.99,24.27-.02,47.63,19.99,47.63,47.82v205.08ZM550.06,483.85v-188.52c0-16.45-16.31-31.39-31.43-31.22-44.59,2.62-92.78-3.54-136.95,0-18.43,1.48-30.1,13.79-31.45,33.45v428.28c1.88,26.1,17.01,33.14,39.18,34.24,43.97,2.17,88.72-1.02,132.68-.87,14.25-1.21,27.97-15.67,27.97-31.14v-188.52h-75.9l-1.06,1.13v149.01c0,3.84-4.94,12.37-7.83,14.99-14.8,13.43-37.57,2.66-38.1-17.96l.11-352.16c2.85-22.98,32.24-29.35,42.85-8.97.75,1.44,2.96,6.91,2.96,8.13v150.14h76.96Z"/><path d="M195.63,776.61h-107.32V247.54h183.91c27.93,2.06,45.22,21.12,46.99,50.77l-.04,270.2c0,25.04-20.72,50.05-44.83,50.05h-77.66l-1.06,158.04ZM180.81,602.01h92.84c16.7,0,30.54-17.71,30.04-34.96l-.04-269.45c-.03-16.71-13.93-33.5-30-33.5H103.85v495.95h75.9l1.06-1.13v-156.91Z"/><path d="M920.02,760.05h-76.96v-424.08c0-4.94-4.24-13.27-7.76-16.56-14.98-14.02-38.84-2.45-38.84,18.82v421.82h-75.9l-1.06-1.13v-425.21c0-10.62-13.53-20.69-22.95-20.69-9.99,0-22.95,10.23-22.95,21.44v424.46l-1.06,1.13h-75.9v-495.95h292.65c16.83,0,30.71,16.72,30.71,34.24v461.71Z" fill="#fff"/><path d="M550.06,483.85h-76.96v-150.14c0-1.23-2.21-6.69-2.96-8.13-10.61-20.38-40.01-14.01-42.85,8.97l-.11,352.16c.53,20.62,23.3,31.4,38.1,17.96,2.89-2.62,7.83-11.14,7.83-14.99v-149.01l1.06-1.13h75.9v188.52c0,15.47-13.73,29.93-27.97,31.14-43.96-.15-88.71,3.05-132.68.87-22.18-1.09-37.3-8.14-39.19-34.24v-428.28c1.36-19.66,12.99-32.76,31.46-33.45,41.62-1.55,105.47,0,136.95,0,15.12-.16,31.43,14.78,31.43,31.22v188.52Z" fill="#fff"/><path d="M180.81,602.01v156.91l-1.06,1.13h-75.9v-495.95h169.8c16.06,0,29.97,16.78,30,33.5l.04,269.45c.5,17.25-13.34,34.96-30.04,34.96h-92.84ZM202.57,313.2c-11.24.59-20.65,10.14-21.76,22.03l-.04,194.19c2.45,30.8,42.48,31.54,45.91.71-.57-66.36,1.21-132.99-.9-199.2-2.93-10.87-12.53-18.28-23.21-17.72Z" fill="#fff"/><path d="M202.57,313.2c10.68-.56,20.29,6.85,23.21,17.72,2.11,66.21.33,132.84.9,199.2-3.43,30.83-43.46,30.09-45.91-.71l.04-194.19c1.11-11.89,10.52-21.44,21.76-22.03ZM202.53,329.72c-2.5.39-4.39,2.42-5.65,4.56-.88,61.37-.67,123.1-.5,184.6,0,1.6-.75,3.07-.74,4.49.02,1.76.81,7.45,1.5,8.93,2.83,6.01,11.71,5.32,13.56-1.15l.49-192.94c.05-5.17-3.73-9.25-8.66-8.48Z"/></g></svg>