<?xml version="1.0" encoding="UTF-8"?><svg id="Lager_1" xmlns="http://www.w3.org/2000/svg" viewBox="0 0 60 60"><path d="M50.84,18.98v29.91c0,3.48-2.82,6.3-6.3,6.3v-3.15c1.74,0,3.15-1.41,3.15-3.15V18.98h-6.3c-2.61,0-4.72-2.11-4.72-4.72V7.96H19.36c-1.74,0-3.15,1.41-3.15,3.15v28.33h-3.15V11.11c0-3.48,2.82-6.3,6.3-6.3h17.32l14.17,14.17ZM12.38,54.71l2.33-8.78h.1l2.33,8.78h2.3l3.32-12.59h-2.7l-1.87,9.14h-.13l-2.22-9.14h-2.15l-2.22,9.14h-.12l-1.89-9.14h-2.69l3.32,12.59h2.3Zm11.7,0l.99-3.24h4.21l.99,3.24h2.65l-4.21-12.59h-2.92l-4.22,12.59h2.52Zm3.15-10.18l1.54,5.09h-3.19l1.54-5.09h.11Zm11.35,10.18h-3l-4.22-12.59h2.89l2.82,9.88h.12l2.8-9.88h2.77l-4.18,12.59Z" fill="#fff" fill-rule="evenodd"/></svg>